<svg id="visual" viewBox="0 0 960 540" width="960" height="540" xmlns="http://www.w3.org/2000/svg" xmlns:xlink="http://www.w3.org/1999/xlink" version="1.1"><rect x="0" y="0" width="960" height="540" fill="#222120"></rect><defs><linearGradient id="grad1_0" x1="43.8%" y1="0%" x2="100%" y2="100%"><stop offset="14.444444444444446%" stop-color="#efb433" stop-opacity="1"></stop><stop offset="85.55555555555554%" stop-color="#efb433" stop-opacity="1"></stop></linearGradient></defs><defs><linearGradient id="grad1_1" x1="43.8%" y1="0%" x2="100%" y2="100%"><stop offset="14.444444444444446%" stop-color="#efb433" stop-opacity="1"></stop><stop offset="85.55555555555554%" stop-color="#85642f" stop-opacity="1"></stop></linearGradient></defs><defs><linearGradient id="grad1_2" x1="43.8%" y1="0%" x2="100%" y2="100%"><stop offset="14.444444444444446%" stop-color="#222120" stop-opacity="1"></stop><stop offset="85.55555555555554%" stop-color="#85642f" stop-opacity="1"></stop></linearGradient></defs><defs><linearGradient id="grad2_0" x1="0%" y1="0%" x2="56.3%" y2="100%"><stop offset="14.444444444444446%" stop-color="#efb433" stop-opacity="1"></stop><stop offset="85.55555555555554%" stop-color="#efb433" stop-opacity="1"></stop></linearGradient></defs><defs><linearGradient id="grad2_1" x1="0%" y1="0%" x2="56.3%" y2="100%"><stop offset="14.444444444444446%" stop-color="#85642f" stop-opacity="1"></stop><stop offset="85.55555555555554%" stop-color="#efb433" stop-opacity="1"></stop></linearGradient></defs><defs><linearGradient id="grad2_2" x1="0%" y1="0%" x2="56.3%" y2="100%"><stop offset="14.444444444444446%" stop-color="#85642f" stop-opacity="1"></stop><stop offset="85.55555555555554%" stop-color="#222120" stop-opacity="1"></stop></linearGradient></defs><g transform="translate(960, 0)"><path d="M0 351C-49.3 348.2 -98.6 345.4 -133.2 321.5C-167.7 297.7 -187.5 252.8 -220.6 220.6C-253.8 188.4 -300.3 169 -324.3 134.3C-348.2 99.7 -349.6 49.8 -351 0L0 0Z" fill="#534129"></path><path d="M0 234C-32.9 232.1 -65.8 230.2 -88.8 214.3C-111.8 198.4 -125 168.5 -147.1 147.1C-169.2 125.6 -200.2 112.6 -216.2 89.5C-232.2 66.4 -233.1 33.2 -234 0L0 0Z" fill="#ba8b33"></path><path d="M0 117C-16.4 116.1 -32.9 115.1 -44.4 107.2C-55.9 99.2 -62.5 84.3 -73.5 73.5C-84.6 62.8 -100.1 56.3 -108.1 44.8C-116.1 33.2 -116.5 16.6 -117 0L0 0Z" fill="#efb433"></path></g><g transform="translate(0, 540)"><path d="M0 -351C38 -318.6 76 -286.2 109.1 -263.3C142.1 -240.4 170.1 -226.9 209.3 -209.3C248.5 -191.7 298.8 -169.9 324.3 -134.3C349.8 -98.7 350.4 -49.4 351 0L0 0Z" fill="#534129"></path><path d="M0 -234C25.3 -212.4 50.7 -190.8 72.7 -175.5C94.7 -160.3 113.4 -151.3 139.5 -139.5C165.7 -127.8 199.2 -113.3 216.2 -89.5C233.2 -65.8 233.6 -32.9 234 0L0 0Z" fill="#ba8b33"></path><path d="M0 -117C12.7 -106.2 25.3 -95.4 36.4 -87.8C47.4 -80.1 56.7 -75.6 69.8 -69.8C82.8 -63.9 99.6 -56.6 108.1 -44.8C116.6 -32.9 116.8 -16.5 117 0L0 0Z" fill="#efb433"></path></g></svg>